<svg width="28" height="28" fill="none" xmlns="http://www.w3.org/2000/svg"><path d="M11.812 28a13.986 13.986 0 01-8.416-4.718A14.132 14.132 0 010 14.085c0-3.762 1.456-7.299 4.1-9.96A13.866 13.866 0 0114 0c3.74 0 7.255 1.465 9.9 4.126a14.036 14.036 0 014.1 9.96c0 3.377-1.206 6.643-3.396 9.196A13.979 13.979 0 0116.189 28l-.001-9.842h3.261l.62-4.072h-3.881v-2.669c.006-.812.31-2.173 2.281-2.173h1.765V5.777c-.012-.001-1.616-.275-3.134-.275-3.31 0-5.288 2.049-5.288 5.48v3.103H8.258v4.072h3.554V28z" fill="#000"/></svg>