<svg width="28" height="28" fill="none" xmlns="http://www.w3.org/2000/svg"><path d="M8.187 28C3.672 28 0 24.328 0 19.813V8.187C0 3.673 3.672 0 8.187 0h11.626C24.328 0 28 3.673 28 8.187v11.626C28 24.328 24.328 28 19.813 28H8.187zM2.61 8.187v11.626a5.583 5.583 0 005.577 5.577h11.626a5.583 5.583 0 005.576-5.577V8.187a5.583 5.583 0 00-5.576-5.577H8.187A5.583 5.583 0 002.61 8.187zM6.763 14c0-3.99 3.246-7.237 7.237-7.237 3.99 0 7.237 3.246 7.237 7.237 0 3.99-3.246 7.237-7.237 7.237-3.99 0-7.237-3.246-7.237-7.237zm2.61 0A4.631 4.631 0 0014 18.627 4.632 4.632 0 0018.627 14 4.632 4.632 0 0014 9.372 4.632 4.632 0 009.373 14zm10.364-7.467a1.744 1.744 0 113.488 0 1.744 1.744 0 01-3.488 0z" fill="#000"/></svg>