<svg width="28" height="23" fill="none" xmlns="http://www.w3.org/2000/svg"><path d="M8.806 23C19.372 23 25.15 14.152 25.15 6.48c0-.252-.005-.502-.017-.75A11.76 11.76 0 0028 2.722c-1.03.462-2.137.774-3.3.914A5.815 5.815 0 0027.228.425a11.439 11.439 0 01-3.648 1.41A5.71 5.71 0 0019.386 0c-3.172 0-5.745 2.6-5.745 5.806 0 .456.05.899.149 1.324-4.775-.243-9.008-2.553-11.841-6.067a5.833 5.833 0 00-.778 2.919 5.818 5.818 0 002.556 4.833 5.656 5.656 0 01-2.602-.727v.074c0 2.813 1.98 5.16 4.608 5.693a5.703 5.703 0 01-2.594.1c.73 2.306 2.852 3.985 5.366 4.032a11.45 11.45 0 01-7.135 2.485c-.463 0-.92-.026-1.37-.08A16.138 16.138 0 008.806 23z" fill="#000"/></svg>